<svg width="181" height="121" viewBox="0 0 181 121" fill="none" xmlns="http://www.w3.org/2000/svg">
<path d="M69.7262 0.681396C102.798 8.15858 120.587 30.7569 120.46 64.4162C120.39 82.8843 120.447 101.353 120.447 120.144C112.505 120.144 105.014 120.144 96.731 120.144C96.731 115.632 96.7312 111.156 96.7309 106.679C96.7298 90.9563 96.8915 75.2312 96.6842 59.5109C96.4482 41.6289 82.7018 26.1968 65.5911 24.1835C46.4812 21.935 29.7785 32.8737 25.05 50.7344C20.3147 68.6208 29.1264 86.6315 46.1658 93.8029C47.9284 94.5448 49.8007 95.0262 52.2506 95.8364C52.2506 83.7602 52.2506 72.3324 52.2506 60.5596C59.3879 60.5596 66.0425 60.5596 72.9974 60.5596C72.9974 80.2912 72.9974 99.9412 72.9969 119.592C37.129 125.473 8.78987 104.06 1.56122 73.494C-5.98469 41.5861 14.5922 8.61348 46.6899 1.7613C53.9455 0.212379 61.6843 0.927225 69.7262 0.681396Z" fill="#3063E6"/>
<path d="M180.655 110.179C180.655 113.709 180.655 116.669 180.655 120.061C172.778 120.061 165.16 120.061 156.876 120.061C156.876 116 156.867 112.082 156.878 108.165C156.923 91.8499 157 75.535 157.019 59.2201C157.047 34.1035 140.122 11.1057 115.66 2.96113C114.2 2.47485 112.737 1.99465 110.838 1.36718C139.983 -5.73716 172.195 15.6695 179.139 46.4753C180.179 51.0867 180.583 55.9227 180.631 60.6613C180.795 76.9752 180.67 93.292 180.655 110.179Z" fill="#3063E6"/>
</svg>
